{
	"asset":{
		"generator":"Khronos glTF Blender I/O v4.0.44",
		"version":"2.0"
	},
	"scene":0,
	"scenes":[
		{
			"extras":{
				"keentools_gt_settings":{},
				"keentools_ft_settings":{},
				"keentools_fb_settings":{},
				"sna_animation_menu":{}
			},
			"name":"Scene",
			"nodes":[
				0
			]
		}
	],
	"nodes":[
		{
			"mesh":0,
			"name":"01_GolfCourse"
		}
	],
	"meshes":[
		{
			"name":"Plane",
			"primitives":[
				{
					"attributes":{
						"POSITION":0,
						"NORMAL":1,
						"TEXCOORD_0":2,
						"TANGENT":3
					},
					"indices":4
				}
			]
		}
	],
	"accessors":[
		{
			"bufferView":0,
			"componentType":5126,
			"count":8300,
			"max":[
				262.8863525390625,
				5.240975379943848,
				217.56884765625
			],
			"min":[
				-225.52154541015625,
				-3.288522720336914,
				-221.10150146484375
			],
			"type":"VEC3"
		},
		{
			"bufferView":1,
			"componentType":5126,
			"count":8300,
			"type":"VEC3"
		},
		{
			"bufferView":2,
			"componentType":5126,
			"count":8300,
			"type":"VEC2"
		},
		{
			"bufferView":3,
			"componentType":5126,
			"count":8300,
			"type":"VEC4"
		},
		{
			"bufferView":4,
			"componentType":5123,
			"count":11958,
			"type":"SCALAR"
		}
	],
	"bufferViews":[
		{
			"buffer":0,
			"byteLength":99600,
			"byteOffset":0,
			"target":34962
		},
		{
			"buffer":0,
			"byteLength":99600,
			"byteOffset":99600,
			"target":34962
		},
		{
			"buffer":0,
			"byteLength":66400,
			"byteOffset":199200,
			"target":34962
		},
		{
			"buffer":0,
			"byteLength":132800,
			"byteOffset":265600,
			"target":34962
		},
		{
			"buffer":0,
			"byteLength":23916,
			"byteOffset":398400,
			"target":34963
		}
	],
	"buffers":[
		{
			"byteLength":422316,
			"uri":"collision_terrain-c5da85468763ab94c702b28f45de5ea5.bin"
		}
	]
}
