{
	"asset":{
		"generator":"Khronos glTF Blender I/O v4.0.44",
		"version":"2.0"
	},
	"scene":0,
	"scenes":[
		{
			"extras":{
				"keentools_gt_settings":{},
				"keentools_ft_settings":{},
				"keentools_fb_settings":{},
				"sna_animation_menu":{}
			},
			"name":"Scene",
			"nodes":[
				0
			]
		}
	],
	"nodes":[
		{
			"mesh":0,
			"name":"Masters_course"
		}
	],
	"materials":[
		{
			"doubleSided":true,
			"name":"Fairway_01",
			"pbrMetallicRoughness":{
				"baseColorTexture":{
					"index":0
				},
				"metallicFactor":0,
				"roughnessFactor":0.9454545378684998
			}
		},
		{
			"doubleSided":true,
			"name":"Fairway_02",
			"pbrMetallicRoughness":{
				"baseColorTexture":{
					"index":1
				},
				"metallicFactor":0
			}
		},
		{
			"doubleSided":true,
			"name":"High Ground",
			"pbrMetallicRoughness":{
				"baseColorTexture":{
					"index":2
				},
				"metallicFactor":0
			}
		},
		{
			"doubleSided":true,
			"name":"Green",
			"pbrMetallicRoughness":{
				"baseColorTexture":{
					"index":3
				},
				"metallicFactor":0
			}
		},
		{
			"doubleSided":true,
			"name":"Waters Edge",
			"pbrMetallicRoughness":{
				"baseColorTexture":{
					"index":4
				},
				"metallicFactor":0
			}
		},
		{
			"doubleSided":true,
			"name":"Water",
			"pbrMetallicRoughness":{
				"baseColorTexture":{
					"index":5
				},
				"metallicFactor":0
			}
		},
		{
			"doubleSided":true,
			"name":"Sand",
			"pbrMetallicRoughness":{
				"baseColorTexture":{
					"index":6
				},
				"metallicFactor":0
			}
		},
		{
			"doubleSided":true,
			"name":"Fringe",
			"pbrMetallicRoughness":{
				"baseColorTexture":{
					"index":7
				},
				"metallicFactor":0
			}
		},
		{
			"doubleSided":true,
			"name":"Fringe_2",
			"pbrMetallicRoughness":{
				"baseColorTexture":{
					"index":8
				},
				"metallicFactor":0
			}
		}
	],
	"meshes":[
		{
			"name":"Plane.087",
			"primitives":[
				{
					"attributes":{
						"POSITION":0,
						"NORMAL":1,
						"TEXCOORD_0":2,
						"TANGENT":3
					},
					"indices":4,
					"material":0
				},
				{
					"attributes":{
						"POSITION":5,
						"NORMAL":6,
						"TEXCOORD_0":7,
						"TANGENT":8
					},
					"indices":9,
					"material":1
				},
				{
					"attributes":{
						"POSITION":10,
						"NORMAL":11,
						"TEXCOORD_0":12,
						"TANGENT":13
					},
					"indices":14,
					"material":2
				},
				{
					"attributes":{
						"POSITION":15,
						"NORMAL":16,
						"TEXCOORD_0":17,
						"TANGENT":18
					},
					"indices":19,
					"material":3
				},
				{
					"attributes":{
						"POSITION":20,
						"NORMAL":21,
						"TEXCOORD_0":22,
						"TANGENT":23
					},
					"indices":24,
					"material":4
				},
				{
					"attributes":{
						"POSITION":25,
						"NORMAL":26,
						"TEXCOORD_0":27,
						"TANGENT":28
					},
					"indices":29,
					"material":5
				},
				{
					"attributes":{
						"POSITION":30,
						"NORMAL":31,
						"TEXCOORD_0":32,
						"TANGENT":33
					},
					"indices":34,
					"material":6
				},
				{
					"attributes":{
						"POSITION":35,
						"NORMAL":36,
						"TEXCOORD_0":37,
						"TANGENT":38
					},
					"indices":39,
					"material":7
				},
				{
					"attributes":{
						"POSITION":40,
						"NORMAL":41,
						"TEXCOORD_0":42,
						"TANGENT":43
					},
					"indices":44,
					"material":8
				}
			]
		}
	],
	"textures":[
		{
			"sampler":0,
			"source":0
		},
		{
			"sampler":0,
			"source":0
		},
		{
			"sampler":0,
			"source":0
		},
		{
			"sampler":0,
			"source":0
		},
		{
			"sampler":0,
			"source":0
		},
		{
			"sampler":0,
			"source":0
		},
		{
			"sampler":0,
			"source":0
		},
		{
			"sampler":0,
			"source":0
		},
		{
			"sampler":0,
			"source":0
		}
	],
	"images":[
		{
			"mimeType":"image/png",
			"name":"augusta_color_texture_atlas.png",
			"uri":"../../01_Assets/01_3D/03_Environment/Course/Blender/textures/augusta_color_texture_atlas.png"
		}
	],
	"accessors":[
		{
			"bufferView":0,
			"componentType":5126,
			"count":44788,
			"max":[
				235.11868286132812,
				4.429348468780518,
				183.52037048339844
			],
			"min":[
				-199.4519805908203,
				-3.1186938285827637,
				-214.98519897460938
			],
			"type":"VEC3"
		},
		{
			"bufferView":1,
			"componentType":5126,
			"count":44788,
			"type":"VEC3"
		},
		{
			"bufferView":2,
			"componentType":5126,
			"count":44788,
			"type":"VEC2"
		},
		{
			"bufferView":3,
			"componentType":5126,
			"count":44788,
			"type":"VEC4"
		},
		{
			"bufferView":4,
			"componentType":5123,
			"count":51537,
			"type":"SCALAR"
		},
		{
			"bufferView":5,
			"componentType":5126,
			"count":24770,
			"max":[
				248.08705139160156,
				7.115258693695068,
				207.0828857421875
			],
			"min":[
				-218.13980102539062,
				-2.964682102203369,
				-219.12510681152344
			],
			"type":"VEC3"
		},
		{
			"bufferView":6,
			"componentType":5126,
			"count":24770,
			"type":"VEC3"
		},
		{
			"bufferView":7,
			"componentType":5126,
			"count":24770,
			"type":"VEC2"
		},
		{
			"bufferView":8,
			"componentType":5126,
			"count":24770,
			"type":"VEC4"
		},
		{
			"bufferView":9,
			"componentType":5123,
			"count":27366,
			"type":"SCALAR"
		},
		{
			"bufferView":10,
			"componentType":5126,
			"count":8580,
			"max":[
				262.0300598144531,
				7.218399524688721,
				215.3279266357422
			],
			"min":[
				-225.0919647216797,
				0.209734708070755,
				-180.10595703125
			],
			"type":"VEC3"
		},
		{
			"bufferView":11,
			"componentType":5126,
			"count":8580,
			"type":"VEC3"
		},
		{
			"bufferView":12,
			"componentType":5126,
			"count":8580,
			"type":"VEC2"
		},
		{
			"bufferView":13,
			"componentType":5126,
			"count":8580,
			"type":"VEC4"
		},
		{
			"bufferView":14,
			"componentType":5123,
			"count":9429,
			"type":"SCALAR"
		},
		{
			"bufferView":15,
			"componentType":5126,
			"count":7781,
			"max":[
				43.97178649902344,
				2.5068137645721436,
				144.2228546142578
			],
			"min":[
				-48.65563201904297,
				-0.037671446800231934,
				68.80117797851562
			],
			"type":"VEC3"
		},
		{
			"bufferView":16,
			"componentType":5126,
			"count":7781,
			"type":"VEC3"
		},
		{
			"bufferView":17,
			"componentType":5126,
			"count":7781,
			"type":"VEC2"
		},
		{
			"bufferView":18,
			"componentType":5126,
			"count":7781,
			"type":"VEC4"
		},
		{
			"bufferView":19,
			"componentType":5123,
			"count":8211,
			"type":"SCALAR"
		},
		{
			"bufferView":20,
			"componentType":5126,
			"count":13331,
			"max":[
				93.14384460449219,
				1.2448720932006836,
				144.4594268798828
			],
			"min":[
				-210.85543823242188,
				-0.5375495553016663,
				-97.97227478027344
			],
			"type":"VEC3"
		},
		{
			"bufferView":21,
			"componentType":5126,
			"count":13331,
			"type":"VEC3"
		},
		{
			"bufferView":22,
			"componentType":5126,
			"count":13331,
			"type":"VEC2"
		},
		{
			"bufferView":23,
			"componentType":5126,
			"count":13331,
			"type":"VEC4"
		},
		{
			"bufferView":24,
			"componentType":5123,
			"count":14709,
			"type":"SCALAR"
		},
		{
			"bufferView":25,
			"componentType":5126,
			"count":2989,
			"max":[
				93.25370788574219,
				-0.5209674835205078,
				140.6742706298828
			],
			"min":[
				-206.94158935546875,
				-0.5297255516052246,
				-95.31781768798828
			],
			"type":"VEC3"
		},
		{
			"bufferView":26,
			"componentType":5126,
			"count":2989,
			"type":"VEC3"
		},
		{
			"bufferView":27,
			"componentType":5126,
			"count":2989,
			"type":"VEC2"
		},
		{
			"bufferView":28,
			"componentType":5126,
			"count":2989,
			"type":"VEC4"
		},
		{
			"bufferView":29,
			"componentType":5123,
			"count":7650,
			"type":"SCALAR"
		},
		{
			"bufferView":30,
			"componentType":5126,
			"count":17002,
			"max":[
				24.64865493774414,
				1.9758437871932983,
				150.92446899414062
			],
			"min":[
				-47.163360595703125,
				-0.6544873118400574,
				83.24816131591797
			],
			"type":"VEC3"
		},
		{
			"bufferView":31,
			"componentType":5126,
			"count":17002,
			"type":"VEC3"
		},
		{
			"bufferView":32,
			"componentType":5126,
			"count":17002,
			"type":"VEC2"
		},
		{
			"bufferView":33,
			"componentType":5126,
			"count":17002,
			"type":"VEC4"
		},
		{
			"bufferView":34,
			"componentType":5123,
			"count":18366,
			"type":"SCALAR"
		},
		{
			"bufferView":35,
			"componentType":5126,
			"count":4446,
			"max":[
				44.85757064819336,
				2.547238349914551,
				144.84829711914062
			],
			"min":[
				-50.427406311035156,
				-0.03508217632770538,
				67.205810546875
			],
			"type":"VEC3"
		},
		{
			"bufferView":36,
			"componentType":5126,
			"count":4446,
			"type":"VEC3"
		},
		{
			"bufferView":37,
			"componentType":5126,
			"count":4446,
			"type":"VEC2"
		},
		{
			"bufferView":38,
			"componentType":5126,
			"count":4446,
			"type":"VEC4"
		},
		{
			"bufferView":39,
			"componentType":5123,
			"count":4896,
			"type":"SCALAR"
		},
		{
			"bufferView":40,
			"componentType":5126,
			"count":14394,
			"max":[
				75.66234588623047,
				2.6880321502685547,
				146.82933044433594
			],
			"min":[
				-53.15953063964844,
				-0.27085259556770325,
				58.28479766845703
			],
			"type":"VEC3"
		},
		{
			"bufferView":41,
			"componentType":5126,
			"count":14394,
			"type":"VEC3"
		},
		{
			"bufferView":42,
			"componentType":5126,
			"count":14394,
			"type":"VEC2"
		},
		{
			"bufferView":43,
			"componentType":5126,
			"count":14394,
			"type":"VEC4"
		},
		{
			"bufferView":44,
			"componentType":5123,
			"count":15771,
			"type":"SCALAR"
		}
	],
	"bufferViews":[
		{
			"buffer":0,
			"byteLength":537456,
			"byteOffset":0,
			"target":34962
		},
		{
			"buffer":0,
			"byteLength":537456,
			"byteOffset":537456,
			"target":34962
		},
		{
			"buffer":0,
			"byteLength":358304,
			"byteOffset":1074912,
			"target":34962
		},
		{
			"buffer":0,
			"byteLength":716608,
			"byteOffset":1433216,
			"target":34962
		},
		{
			"buffer":0,
			"byteLength":103074,
			"byteOffset":2149824,
			"target":34963
		},
		{
			"buffer":0,
			"byteLength":297240,
			"byteOffset":2252900,
			"target":34962
		},
		{
			"buffer":0,
			"byteLength":297240,
			"byteOffset":2550140,
			"target":34962
		},
		{
			"buffer":0,
			"byteLength":198160,
			"byteOffset":2847380,
			"target":34962
		},
		{
			"buffer":0,
			"byteLength":396320,
			"byteOffset":3045540,
			"target":34962
		},
		{
			"buffer":0,
			"byteLength":54732,
			"byteOffset":3441860,
			"target":34963
		},
		{
			"buffer":0,
			"byteLength":102960,
			"byteOffset":3496592,
			"target":34962
		},
		{
			"buffer":0,
			"byteLength":102960,
			"byteOffset":3599552,
			"target":34962
		},
		{
			"buffer":0,
			"byteLength":68640,
			"byteOffset":3702512,
			"target":34962
		},
		{
			"buffer":0,
			"byteLength":137280,
			"byteOffset":3771152,
			"target":34962
		},
		{
			"buffer":0,
			"byteLength":18858,
			"byteOffset":3908432,
			"target":34963
		},
		{
			"buffer":0,
			"byteLength":93372,
			"byteOffset":3927292,
			"target":34962
		},
		{
			"buffer":0,
			"byteLength":93372,
			"byteOffset":4020664,
			"target":34962
		},
		{
			"buffer":0,
			"byteLength":62248,
			"byteOffset":4114036,
			"target":34962
		},
		{
			"buffer":0,
			"byteLength":124496,
			"byteOffset":4176284,
			"target":34962
		},
		{
			"buffer":0,
			"byteLength":16422,
			"byteOffset":4300780,
			"target":34963
		},
		{
			"buffer":0,
			"byteLength":159972,
			"byteOffset":4317204,
			"target":34962
		},
		{
			"buffer":0,
			"byteLength":159972,
			"byteOffset":4477176,
			"target":34962
		},
		{
			"buffer":0,
			"byteLength":106648,
			"byteOffset":4637148,
			"target":34962
		},
		{
			"buffer":0,
			"byteLength":213296,
			"byteOffset":4743796,
			"target":34962
		},
		{
			"buffer":0,
			"byteLength":29418,
			"byteOffset":4957092,
			"target":34963
		},
		{
			"buffer":0,
			"byteLength":35868,
			"byteOffset":4986512,
			"target":34962
		},
		{
			"buffer":0,
			"byteLength":35868,
			"byteOffset":5022380,
			"target":34962
		},
		{
			"buffer":0,
			"byteLength":23912,
			"byteOffset":5058248,
			"target":34962
		},
		{
			"buffer":0,
			"byteLength":47824,
			"byteOffset":5082160,
			"target":34962
		},
		{
			"buffer":0,
			"byteLength":15300,
			"byteOffset":5129984,
			"target":34963
		},
		{
			"buffer":0,
			"byteLength":204024,
			"byteOffset":5145284,
			"target":34962
		},
		{
			"buffer":0,
			"byteLength":204024,
			"byteOffset":5349308,
			"target":34962
		},
		{
			"buffer":0,
			"byteLength":136016,
			"byteOffset":5553332,
			"target":34962
		},
		{
			"buffer":0,
			"byteLength":272032,
			"byteOffset":5689348,
			"target":34962
		},
		{
			"buffer":0,
			"byteLength":36732,
			"byteOffset":5961380,
			"target":34963
		},
		{
			"buffer":0,
			"byteLength":53352,
			"byteOffset":5998112,
			"target":34962
		},
		{
			"buffer":0,
			"byteLength":53352,
			"byteOffset":6051464,
			"target":34962
		},
		{
			"buffer":0,
			"byteLength":35568,
			"byteOffset":6104816,
			"target":34962
		},
		{
			"buffer":0,
			"byteLength":71136,
			"byteOffset":6140384,
			"target":34962
		},
		{
			"buffer":0,
			"byteLength":9792,
			"byteOffset":6211520,
			"target":34963
		},
		{
			"buffer":0,
			"byteLength":172728,
			"byteOffset":6221312,
			"target":34962
		},
		{
			"buffer":0,
			"byteLength":172728,
			"byteOffset":6394040,
			"target":34962
		},
		{
			"buffer":0,
			"byteLength":115152,
			"byteOffset":6566768,
			"target":34962
		},
		{
			"buffer":0,
			"byteLength":230304,
			"byteOffset":6681920,
			"target":34962
		},
		{
			"buffer":0,
			"byteLength":31542,
			"byteOffset":6912224,
			"target":34963
		}
	],
	"samplers":[
		{
			"magFilter":9729,
			"minFilter":9987
		}
	],
	"buffers":[
		{
			"byteLength":6943768,
			"uri":"Nocks_Course_v4-3ab5ae38cdd0edf8354c4ddc9fc1ca17.bin"
		}
	]
}
