{
	"asset":{
		"generator":"Khronos glTF Blender I/O v4.0.44",
		"version":"2.0"
	},
	"scene":0,
	"scenes":[
		{
			"extras":{
				"keentools_gt_settings":{},
				"keentools_ft_settings":{},
				"keentools_fb_settings":{},
				"sna_animation_menu":{}
			},
			"name":"Scene",
			"nodes":[
				0
			]
		}
	],
	"nodes":[
		{
			"mesh":0,
			"name":"01_GolfCourse"
		}
	],
	"materials":[
		{
			"doubleSided":true,
			"name":"Fairway_01",
			"pbrMetallicRoughness":{
				"baseColorTexture":{
					"index":0
				},
				"metallicFactor":0,
				"roughnessFactor":0.9454545378684998
			}
		},
		{
			"doubleSided":true,
			"name":"Fairway_02",
			"pbrMetallicRoughness":{
				"baseColorTexture":{
					"index":1
				},
				"metallicFactor":0
			}
		},
		{
			"doubleSided":true,
			"name":"High Ground",
			"pbrMetallicRoughness":{
				"baseColorTexture":{
					"index":2
				},
				"metallicFactor":0
			}
		},
		{
			"doubleSided":true,
			"name":"Green",
			"pbrMetallicRoughness":{
				"baseColorTexture":{
					"index":3
				},
				"metallicFactor":0
			}
		},
		{
			"doubleSided":true,
			"name":"Waters Edge",
			"pbrMetallicRoughness":{
				"baseColorTexture":{
					"index":4
				},
				"metallicFactor":0
			}
		},
		{
			"doubleSided":true,
			"name":"Water",
			"pbrMetallicRoughness":{
				"baseColorTexture":{
					"index":5
				},
				"metallicFactor":0
			}
		},
		{
			"doubleSided":true,
			"name":"Sand",
			"pbrMetallicRoughness":{
				"baseColorTexture":{
					"index":6
				},
				"metallicFactor":0
			}
		},
		{
			"doubleSided":true,
			"name":"Fringe",
			"pbrMetallicRoughness":{
				"baseColorTexture":{
					"index":7
				},
				"metallicFactor":0
			}
		},
		{
			"doubleSided":true,
			"name":"Fringe_2",
			"pbrMetallicRoughness":{
				"baseColorTexture":{
					"index":8
				},
				"metallicFactor":0
			}
		}
	],
	"meshes":[
		{
			"name":"Plane",
			"primitives":[
				{
					"attributes":{
						"POSITION":0,
						"NORMAL":1,
						"TEXCOORD_0":2,
						"TANGENT":3
					},
					"indices":4,
					"material":0
				},
				{
					"attributes":{
						"POSITION":5,
						"NORMAL":6,
						"TEXCOORD_0":7,
						"TANGENT":8
					},
					"indices":9,
					"material":1
				},
				{
					"attributes":{
						"POSITION":10,
						"NORMAL":11,
						"TEXCOORD_0":12,
						"TANGENT":13
					},
					"indices":14,
					"material":2
				},
				{
					"attributes":{
						"POSITION":15,
						"NORMAL":16,
						"TEXCOORD_0":17,
						"TANGENT":18
					},
					"indices":19,
					"material":3
				},
				{
					"attributes":{
						"POSITION":20,
						"NORMAL":21,
						"TEXCOORD_0":22,
						"TANGENT":23
					},
					"indices":24,
					"material":4
				},
				{
					"attributes":{
						"POSITION":25,
						"NORMAL":26,
						"TEXCOORD_0":27,
						"TANGENT":28
					},
					"indices":29,
					"material":5
				},
				{
					"attributes":{
						"POSITION":30,
						"NORMAL":31,
						"TEXCOORD_0":32,
						"TANGENT":33
					},
					"indices":34,
					"material":6
				},
				{
					"attributes":{
						"POSITION":35,
						"NORMAL":36,
						"TEXCOORD_0":37,
						"TANGENT":38
					},
					"indices":39,
					"material":7
				},
				{
					"attributes":{
						"POSITION":40,
						"NORMAL":41,
						"TEXCOORD_0":42,
						"TANGENT":43
					},
					"indices":44,
					"material":8
				}
			]
		}
	],
	"textures":[
		{
			"sampler":0,
			"source":0
		},
		{
			"sampler":0,
			"source":0
		},
		{
			"sampler":0,
			"source":0
		},
		{
			"sampler":0,
			"source":0
		},
		{
			"sampler":0,
			"source":0
		},
		{
			"sampler":0,
			"source":0
		},
		{
			"sampler":0,
			"source":0
		},
		{
			"sampler":0,
			"source":0
		},
		{
			"sampler":0,
			"source":0
		}
	],
	"images":[
		{
			"mimeType":"image/png",
			"name":"augusta_color_texture_atlas.png",
			"uri":"../../01_Assets/01_3D/03_Environment/Course/textures/augusta_color_texture_atlas.png"
		}
	],
	"accessors":[
		{
			"bufferView":0,
			"componentType":5126,
			"count":1930,
			"max":[
				235.47152709960938,
				2.542754650115967,
				183.29434204101562
			],
			"min":[
				-202.2911376953125,
				-3.288522720336914,
				-216.17910766601562
			],
			"type":"VEC3"
		},
		{
			"bufferView":1,
			"componentType":5126,
			"count":1930,
			"type":"VEC3"
		},
		{
			"bufferView":2,
			"componentType":5126,
			"count":1930,
			"type":"VEC2"
		},
		{
			"bufferView":3,
			"componentType":5126,
			"count":1930,
			"type":"VEC4"
		},
		{
			"bufferView":4,
			"componentType":5123,
			"count":3150,
			"type":"SCALAR"
		},
		{
			"bufferView":5,
			"componentType":5126,
			"count":1807,
			"max":[
				245.8726806640625,
				5.240975379943848,
				210.50888061523438
			],
			"min":[
				-218.32754516601562,
				-3.288522720336914,
				-221.10150146484375
			],
			"type":"VEC3"
		},
		{
			"bufferView":6,
			"componentType":5126,
			"count":1807,
			"type":"VEC3"
		},
		{
			"bufferView":7,
			"componentType":5126,
			"count":1807,
			"type":"VEC2"
		},
		{
			"bufferView":8,
			"componentType":5126,
			"count":1807,
			"type":"VEC4"
		},
		{
			"bufferView":9,
			"componentType":5123,
			"count":1974,
			"type":"SCALAR"
		},
		{
			"bufferView":10,
			"componentType":5126,
			"count":411,
			"max":[
				262.8863525390625,
				5.240975379943848,
				217.56884765625
			],
			"min":[
				-225.52154541015625,
				-0.07070597261190414,
				-178.92776489257812
			],
			"type":"VEC3"
		},
		{
			"bufferView":11,
			"componentType":5126,
			"count":411,
			"type":"VEC3"
		},
		{
			"bufferView":12,
			"componentType":5126,
			"count":411,
			"type":"VEC2"
		},
		{
			"bufferView":13,
			"componentType":5126,
			"count":411,
			"type":"VEC4"
		},
		{
			"bufferView":14,
			"componentType":5123,
			"count":729,
			"type":"SCALAR"
		},
		{
			"bufferView":15,
			"componentType":5126,
			"count":344,
			"max":[
				44.06285095214844,
				0.26447778940200806,
				144.35519409179688
			],
			"min":[
				-48.96164321899414,
				-0.07070597261190414,
				68.67462921142578
			],
			"type":"VEC3"
		},
		{
			"bufferView":16,
			"componentType":5126,
			"count":344,
			"type":"VEC3"
		},
		{
			"bufferView":17,
			"componentType":5126,
			"count":344,
			"type":"VEC2"
		},
		{
			"bufferView":18,
			"componentType":5126,
			"count":344,
			"type":"VEC4"
		},
		{
			"bufferView":19,
			"componentType":5123,
			"count":1065,
			"type":"SCALAR"
		},
		{
			"bufferView":20,
			"componentType":5126,
			"count":860,
			"max":[
				93.03731536865234,
				1.1521425247192383,
				144.5653533935547
			],
			"min":[
				-210.00698852539062,
				-0.6105794906616211,
				-96.77576446533203
			],
			"type":"VEC3"
		},
		{
			"bufferView":21,
			"componentType":5126,
			"count":860,
			"type":"VEC3"
		},
		{
			"bufferView":22,
			"componentType":5126,
			"count":860,
			"type":"VEC2"
		},
		{
			"bufferView":23,
			"componentType":5126,
			"count":860,
			"type":"VEC4"
		},
		{
			"bufferView":24,
			"componentType":5123,
			"count":933,
			"type":"SCALAR"
		},
		{
			"bufferView":25,
			"componentType":5126,
			"count":255,
			"max":[
				93.75101470947266,
				0,
				141.48788452148438
			],
			"min":[
				-206.77708435058594,
				-0.6105794906616211,
				-95.2056655883789
			],
			"type":"VEC3"
		},
		{
			"bufferView":26,
			"componentType":5126,
			"count":255,
			"type":"VEC3"
		},
		{
			"bufferView":27,
			"componentType":5126,
			"count":255,
			"type":"VEC2"
		},
		{
			"bufferView":28,
			"componentType":5126,
			"count":255,
			"type":"VEC4"
		},
		{
			"bufferView":29,
			"componentType":5123,
			"count":615,
			"type":"SCALAR"
		},
		{
			"bufferView":30,
			"componentType":5126,
			"count":1785,
			"max":[
				24.595237731933594,
				0.32960397005081177,
				150.95828247070312
			],
			"min":[
				-47.13222122192383,
				-1.3079793453216553,
				83.98956298828125
			],
			"type":"VEC3"
		},
		{
			"bufferView":31,
			"componentType":5126,
			"count":1785,
			"type":"VEC3"
		},
		{
			"bufferView":32,
			"componentType":5126,
			"count":1785,
			"type":"VEC2"
		},
		{
			"bufferView":33,
			"componentType":5126,
			"count":1785,
			"type":"VEC4"
		},
		{
			"bufferView":34,
			"componentType":5123,
			"count":1833,
			"type":"SCALAR"
		},
		{
			"bufferView":35,
			"componentType":5126,
			"count":212,
			"max":[
				44.90777587890625,
				0.26447778940200806,
				144.70822143554688
			],
			"min":[
				-49.97633361816406,
				-0.07070597261190414,
				67.66744995117188
			],
			"type":"VEC3"
		},
		{
			"bufferView":36,
			"componentType":5126,
			"count":212,
			"type":"VEC3"
		},
		{
			"bufferView":37,
			"componentType":5126,
			"count":212,
			"type":"VEC2"
		},
		{
			"bufferView":38,
			"componentType":5126,
			"count":212,
			"type":"VEC4"
		},
		{
			"bufferView":39,
			"componentType":5123,
			"count":432,
			"type":"SCALAR"
		},
		{
			"bufferView":40,
			"componentType":5126,
			"count":696,
			"max":[
				75.78082275390625,
				0.32960397005081177,
				147.04925537109375
			],
			"min":[
				-52.77408218383789,
				-0.07070598006248474,
				58.92662048339844
			],
			"type":"VEC3"
		},
		{
			"bufferView":41,
			"componentType":5126,
			"count":696,
			"type":"VEC3"
		},
		{
			"bufferView":42,
			"componentType":5126,
			"count":696,
			"type":"VEC2"
		},
		{
			"bufferView":43,
			"componentType":5126,
			"count":696,
			"type":"VEC4"
		},
		{
			"bufferView":44,
			"componentType":5123,
			"count":1227,
			"type":"SCALAR"
		}
	],
	"bufferViews":[
		{
			"buffer":0,
			"byteLength":23160,
			"byteOffset":0,
			"target":34962
		},
		{
			"buffer":0,
			"byteLength":23160,
			"byteOffset":23160,
			"target":34962
		},
		{
			"buffer":0,
			"byteLength":15440,
			"byteOffset":46320,
			"target":34962
		},
		{
			"buffer":0,
			"byteLength":30880,
			"byteOffset":61760,
			"target":34962
		},
		{
			"buffer":0,
			"byteLength":6300,
			"byteOffset":92640,
			"target":34963
		},
		{
			"buffer":0,
			"byteLength":21684,
			"byteOffset":98940,
			"target":34962
		},
		{
			"buffer":0,
			"byteLength":21684,
			"byteOffset":120624,
			"target":34962
		},
		{
			"buffer":0,
			"byteLength":14456,
			"byteOffset":142308,
			"target":34962
		},
		{
			"buffer":0,
			"byteLength":28912,
			"byteOffset":156764,
			"target":34962
		},
		{
			"buffer":0,
			"byteLength":3948,
			"byteOffset":185676,
			"target":34963
		},
		{
			"buffer":0,
			"byteLength":4932,
			"byteOffset":189624,
			"target":34962
		},
		{
			"buffer":0,
			"byteLength":4932,
			"byteOffset":194556,
			"target":34962
		},
		{
			"buffer":0,
			"byteLength":3288,
			"byteOffset":199488,
			"target":34962
		},
		{
			"buffer":0,
			"byteLength":6576,
			"byteOffset":202776,
			"target":34962
		},
		{
			"buffer":0,
			"byteLength":1458,
			"byteOffset":209352,
			"target":34963
		},
		{
			"buffer":0,
			"byteLength":4128,
			"byteOffset":210812,
			"target":34962
		},
		{
			"buffer":0,
			"byteLength":4128,
			"byteOffset":214940,
			"target":34962
		},
		{
			"buffer":0,
			"byteLength":2752,
			"byteOffset":219068,
			"target":34962
		},
		{
			"buffer":0,
			"byteLength":5504,
			"byteOffset":221820,
			"target":34962
		},
		{
			"buffer":0,
			"byteLength":2130,
			"byteOffset":227324,
			"target":34963
		},
		{
			"buffer":0,
			"byteLength":10320,
			"byteOffset":229456,
			"target":34962
		},
		{
			"buffer":0,
			"byteLength":10320,
			"byteOffset":239776,
			"target":34962
		},
		{
			"buffer":0,
			"byteLength":6880,
			"byteOffset":250096,
			"target":34962
		},
		{
			"buffer":0,
			"byteLength":13760,
			"byteOffset":256976,
			"target":34962
		},
		{
			"buffer":0,
			"byteLength":1866,
			"byteOffset":270736,
			"target":34963
		},
		{
			"buffer":0,
			"byteLength":3060,
			"byteOffset":272604,
			"target":34962
		},
		{
			"buffer":0,
			"byteLength":3060,
			"byteOffset":275664,
			"target":34962
		},
		{
			"buffer":0,
			"byteLength":2040,
			"byteOffset":278724,
			"target":34962
		},
		{
			"buffer":0,
			"byteLength":4080,
			"byteOffset":280764,
			"target":34962
		},
		{
			"buffer":0,
			"byteLength":1230,
			"byteOffset":284844,
			"target":34963
		},
		{
			"buffer":0,
			"byteLength":21420,
			"byteOffset":286076,
			"target":34962
		},
		{
			"buffer":0,
			"byteLength":21420,
			"byteOffset":307496,
			"target":34962
		},
		{
			"buffer":0,
			"byteLength":14280,
			"byteOffset":328916,
			"target":34962
		},
		{
			"buffer":0,
			"byteLength":28560,
			"byteOffset":343196,
			"target":34962
		},
		{
			"buffer":0,
			"byteLength":3666,
			"byteOffset":371756,
			"target":34963
		},
		{
			"buffer":0,
			"byteLength":2544,
			"byteOffset":375424,
			"target":34962
		},
		{
			"buffer":0,
			"byteLength":2544,
			"byteOffset":377968,
			"target":34962
		},
		{
			"buffer":0,
			"byteLength":1696,
			"byteOffset":380512,
			"target":34962
		},
		{
			"buffer":0,
			"byteLength":3392,
			"byteOffset":382208,
			"target":34962
		},
		{
			"buffer":0,
			"byteLength":864,
			"byteOffset":385600,
			"target":34963
		},
		{
			"buffer":0,
			"byteLength":8352,
			"byteOffset":386464,
			"target":34962
		},
		{
			"buffer":0,
			"byteLength":8352,
			"byteOffset":394816,
			"target":34962
		},
		{
			"buffer":0,
			"byteLength":5568,
			"byteOffset":403168,
			"target":34962
		},
		{
			"buffer":0,
			"byteLength":11136,
			"byteOffset":408736,
			"target":34962
		},
		{
			"buffer":0,
			"byteLength":2454,
			"byteOffset":419872,
			"target":34963
		}
	],
	"samplers":[
		{
			"magFilter":9729,
			"minFilter":9987
		}
	],
	"buffers":[
		{
			"byteLength":422328,
			"uri":"Nocks_Course_v2-53072cf50e2fa8ccfa32465af9f87543.bin"
		}
	]
}
